<svg width="50" height="48" viewBox="0 0 50 48" fill="none" xmlns="http://www.w3.org/2000/svg">
<path d="M33.7292 4H16.2708C8.68749 4 4.16666 8.34 4.16666 15.62V32.36C4.16666 39.66 8.68749 44 16.2708 44H33.7083C41.2917 44 45.8125 39.66 45.8125 32.38V15.62C45.8333 8.34 41.3125 4 33.7292 4ZM25 31.76C20.5417 31.76 16.9167 28.28 16.9167 24C16.9167 19.72 20.5417 16.24 25 16.24C29.4583 16.24 33.0833 19.72 33.0833 24C33.0833 28.28 29.4583 31.76 25 31.76ZM37.3333 13.76C37.2292 14 37.0833 14.22 36.8958 14.42C36.6875 14.6 36.4583 14.74 36.2083 14.84C35.9583 14.94 35.6875 15 35.4167 15C34.8542 15 34.3333 14.8 33.9375 14.42C33.75 14.22 33.6042 14 33.5 13.76C33.3958 13.52 33.3333 13.26 33.3333 13C33.3333 12.74 33.3958 12.48 33.5 12.24C33.6042 11.98 33.75 11.78 33.9375 11.58C34.4167 11.12 35.1458 10.9 35.8125 11.04C35.9583 11.06 36.0833 11.1 36.2083 11.16C36.3333 11.2 36.4583 11.26 36.5833 11.34C36.6875 11.4 36.7917 11.5 36.8958 11.58C37.0833 11.78 37.2292 11.98 37.3333 12.24C37.4375 12.48 37.5 12.74 37.5 13C37.5 13.26 37.4375 13.52 37.3333 13.76Z" fill="#AF96BC" fill-opacity="0.9"/>
</svg>
