<svg width="151" height="151" viewBox="0 0 151 151" fill="none" xmlns="http://www.w3.org/2000/svg">
<rect x="149.501" y="150.267" width="149" height="149" rx="74.5" transform="rotate(-179.705 149.501 150.267)" fill="#D9D9D9" stroke="url(#paint0_linear_69_1028)"/>
<path d="M112.5 86.25V63.75C112.5 45 105 37.5 86.25 37.5H63.75C45 37.5 37.5 45 37.5 63.75V86.25C37.5 105 45 112.5 63.75 112.5H86.25C105 112.5 112.5 105 112.5 86.25Z" stroke="#292D32" stroke-width="1.5" stroke-linecap="round" stroke-linejoin="round"/>
<path d="M56.25 39.375V110.625" stroke="#292D32" stroke-width="1.5" stroke-linecap="round" stroke-linejoin="round"/>
<path d="M73.0125 93.0001C76.0984 93.0001 78.6 90.4985 78.6 87.4127C78.6 84.3268 76.0984 81.8252 73.0125 81.8252C69.9266 81.8252 67.425 84.3268 67.425 87.4127C67.425 90.4985 69.9266 93.0001 73.0125 93.0001Z" stroke="#292D32" stroke-width="1.5" stroke-linecap="round" stroke-linejoin="round"/>
<path d="M99.1126 83.6622V61.7996C99.1126 57.1496 96.1876 56.5123 93.2251 57.2998L82.0501 60.3373C80.0251 60.8998 78.6001 62.5121 78.6001 64.8371V68.7373V71.3623V87.3747" stroke="#292D32" stroke-width="1.5" stroke-linecap="round" stroke-linejoin="round"/>
<path d="M93.4873 89.2501C96.5732 89.2501 99.0748 86.7485 99.0748 83.6627C99.0748 80.5768 96.5732 78.0752 93.4873 78.0752C90.4014 78.0752 87.8998 80.5768 87.8998 83.6627C87.8998 86.7485 90.4014 89.2501 93.4873 89.2501Z" stroke="#292D32" stroke-width="1.5" stroke-linecap="round" stroke-linejoin="round"/>
<path d="M78.5999 71.4002L99.1124 65.8127" stroke="#292D32" stroke-width="1.5" stroke-linecap="round" stroke-linejoin="round"/>
<defs>
<linearGradient id="paint0_linear_69_1028" x1="297.756" y1="295.242" x2="132.118" y2="268.257" gradientUnits="userSpaceOnUse">
<stop offset="0.344791" stop-color="#7429A9"/>
<stop offset="0.9998" stop-color="#F38BDC"/>
<stop offset="0.9999" stop-color="#F38BDC"/>
</linearGradient>
</defs>
</svg>
