<svg width="50" height="48" viewBox="0 0 50 48" fill="none" xmlns="http://www.w3.org/2000/svg">
<path d="M33.625 5.92002L14.8125 11.92C2.16667 15.98 2.16667 22.6 14.8125 26.64L20.3958 28.42L22.25 33.78C26.4583 45.92 33.375 45.92 37.5833 33.78L43.8542 15.74C46.6458 7.64002 42.0625 3.22002 33.625 5.92002ZM34.2917 16.68L26.375 24.32C26.0625 24.62 25.6667 24.76 25.2708 24.76C24.875 24.76 24.4792 24.62 24.1667 24.32C23.5625 23.74 23.5625 22.78 24.1667 22.2L32.0833 14.56C32.6875 13.98 33.6875 13.98 34.2917 14.56C34.8958 15.14 34.8958 16.1 34.2917 16.68Z" fill="#AF96BC"/>
</svg>
