<svg width="1250" height="797" viewBox="0 0 1250 797" fill="none" xmlns="http://www.w3.org/2000/svg">
<circle cx="44" cy="158" r="199" stroke="white" stroke-width="2"/>
<circle cx="1432" cy="859" r="606" stroke="white" stroke-width="2"/>
<path d="M-13085.9 6958.35C-13025.8 6608 -12842.8 6523.44 -12537 6704.68C-12231.2 6885.93 -12048.2 6801.37 -11988.1 6451.02C-11928 6100.66 -11745 6016.11 -11439.2 6197.35C-11133.4 6378.6 -10950.5 6294.04 -10890.4 5943.68C-10830.2 5593.33 -10647.3 5508.77 -10341.5 5690.02C-10035.7 5871.26 -9852.73 5786.71 -9792.61 5436.35C-9732.49 5086 -9549.53 5001.44 -9243.74 5182.68C-8937.94 5363.93 -8754.98 5279.37 -8694.86 4929.02C-8634.74 4578.66 -8451.78 4494.11 -8145.98 4675.35C-7840.18 4856.6 -7657.22 4772.04 -7597.11 4421.68C-7536.99 4071.33 -7354.03 3986.77 -7048.23 4168.02C-6742.43 4349.26 -6559.47 4264.71 -6499.35 3914.35C-6439.24 3564 -6256.28 3479.44 -5950.48 3660.68C-5644.68 3841.93 -5461.72 3757.37 -5401.6 3407.02C-5341.48 3056.66 -5158.52 2972.11 -4852.72 3153.35C-4546.92 3334.59 -4363.97 3250.04 -4303.85 2899.68C-4243.73 2549.33 -4060.77 2464.77 -3754.97 2646.02C-3449.17 2827.26 -3266.21 2742.71 -3206.1 2392.35C-3145.98 2042 -2963.02 1957.44 -2657.22 2138.68C-2351.42 2319.93 -2168.46 2235.37 -2108.34 1885.02C-2048.23 1534.66 -1865.27 1450.11 -1559.47 1631.35C-1253.67 1812.59 -1070.71 1728.04 -1010.59 1377.68C-950.473 1027.33 -767.514 942.773 -461.714 1124.02C-155.915 1305.26 27.0442 1220.71 87.1619 870.35C147.28 519.995 330.238 435.44 636.038 616.684C941.838 797.928 1124.8 713.372 1184.91 363.017C1245.03 12.6618 1427.99 -71.8937 1733.79 109.35C2039.59 290.594 2222.55 206.039 2282.67 -144.316C2342.78 -494.672 2525.74 -579.227 2831.54 -397.983C3137.34 -216.739 3320.3 -301.294 3380.42 -651.65M2282.67 -144.316C2342.78 -494.672 2525.74 -579.227 2831.54 -397.983C3137.34 -216.739 3320.3 -301.294 3380.42 -651.65" stroke="white" stroke-width="2"/>
<path d="M-12769.9 6866.35C-12709.8 6516 -12526.8 6431.44 -12221 6612.68C-11915.2 6793.93 -11732.2 6709.37 -11672.1 6359.02C-11612 6008.66 -11429 5924.11 -11123.2 6105.35C-10817.4 6286.6 -10634.5 6202.04 -10574.4 5851.68C-10514.2 5501.33 -10331.3 5416.77 -10025.5 5598.02C-9719.69 5779.26 -9536.73 5694.71 -9476.61 5344.35C-9416.49 4994 -9233.53 4909.44 -8927.74 5090.68C-8621.94 5271.93 -8438.98 5187.37 -8378.86 4837.02C-8318.74 4486.66 -8135.78 4402.11 -7829.98 4583.35C-7524.18 4764.6 -7341.22 4680.04 -7281.11 4329.68C-7220.99 3979.33 -7038.03 3894.77 -6732.23 4076.02C-6426.43 4257.26 -6243.47 4172.71 -6183.35 3822.35C-6123.24 3472 -5940.28 3387.44 -5634.48 3568.68C-5328.68 3749.93 -5145.72 3665.37 -5085.6 3315.02C-5025.48 2964.66 -4842.52 2880.11 -4536.72 3061.35C-4230.92 3242.59 -4047.97 3158.04 -3987.85 2807.68C-3927.73 2457.33 -3744.77 2372.77 -3438.97 2554.02C-3133.17 2735.26 -2950.21 2650.71 -2890.1 2300.35C-2829.98 1950 -2647.02 1865.44 -2341.22 2046.68C-2035.42 2227.93 -1852.46 2143.37 -1792.34 1793.02C-1732.23 1442.66 -1549.27 1358.11 -1243.47 1539.35C-937.667 1720.59 -754.708 1636.04 -694.591 1285.68C-634.473 935.329 -451.514 850.773 -145.714 1032.02C160.085 1213.26 343.044 1128.71 403.162 778.35C463.28 427.995 646.238 343.44 952.038 524.684C1257.84 705.928 1440.8 621.372 1500.91 271.017C1561.03 -79.3382 1743.99 -163.894 2049.79 17.3504C2355.59 198.594 2538.55 114.039 2598.67 -236.316C2658.78 -586.672 2841.74 -671.227 3147.54 -489.983C3453.34 -308.739 3636.3 -393.294 3696.42 -743.65M2598.67 -236.316C2658.78 -586.672 2841.74 -671.227 3147.54 -489.983C3453.34 -308.739 3636.3 -393.294 3696.42 -743.65" stroke="white" stroke-width="2"/>
<path d="M-13213.9 6754.35C-13153.8 6404 -12970.8 6319.44 -12665 6500.68C-12359.2 6681.93 -12176.2 6597.37 -12116.1 6247.02C-12056 5896.66 -11873 5812.11 -11567.2 5993.35C-11261.4 6174.6 -11078.5 6090.04 -11018.4 5739.68C-10958.2 5389.33 -10775.3 5304.77 -10469.5 5486.02C-10163.7 5667.26 -9980.73 5582.71 -9920.61 5232.35C-9860.49 4882 -9677.53 4797.44 -9371.74 4978.68C-9065.94 5159.93 -8882.98 5075.37 -8822.86 4725.02C-8762.74 4374.66 -8579.78 4290.11 -8273.98 4471.35C-7968.18 4652.6 -7785.22 4568.04 -7725.11 4217.68C-7664.99 3867.33 -7482.03 3782.77 -7176.23 3964.02C-6870.43 4145.26 -6687.47 4060.71 -6627.35 3710.35C-6567.24 3360 -6384.28 3275.44 -6078.48 3456.68C-5772.68 3637.93 -5589.72 3553.37 -5529.6 3203.02C-5469.48 2852.66 -5286.52 2768.11 -4980.72 2949.35C-4674.92 3130.59 -4491.97 3046.04 -4431.85 2695.68C-4371.73 2345.33 -4188.77 2260.77 -3882.97 2442.02C-3577.17 2623.26 -3394.21 2538.71 -3334.1 2188.35C-3273.98 1838 -3091.02 1753.44 -2785.22 1934.68C-2479.42 2115.93 -2296.46 2031.37 -2236.34 1681.02C-2176.23 1330.66 -1993.27 1246.11 -1687.47 1427.35C-1381.67 1608.59 -1198.71 1524.04 -1138.59 1173.68C-1078.47 823.329 -895.514 738.773 -589.714 920.017C-283.915 1101.26 -100.956 1016.71 -40.8381 666.35C19.2796 315.995 202.238 231.44 508.038 412.684C813.838 593.928 996.797 509.372 1056.91 159.017C1117.03 -191.338 1299.99 -275.894 1605.79 -94.6496C1911.59 86.5945 2094.55 2.03892 2154.67 -348.316C2214.78 -698.672 2397.74 -783.227 2703.54 -601.983C3009.34 -420.739 3192.3 -505.294 3252.42 -855.65M2154.67 -348.316C2214.78 -698.672 2397.74 -783.227 2703.54 -601.983C3009.34 -420.739 3192.3 -505.294 3252.42 -855.65" stroke="white" stroke-width="2"/>
<path d="M-12793.9 6426.35C-12733.8 6076 -12550.8 5991.44 -12245 6172.68C-11939.2 6353.93 -11756.2 6269.37 -11696.1 5919.02C-11636 5568.66 -11453 5484.11 -11147.2 5665.35C-10841.4 5846.6 -10658.5 5762.04 -10598.4 5411.68C-10538.2 5061.33 -10355.3 4976.77 -10049.5 5158.02C-9743.69 5339.26 -9560.73 5254.71 -9500.61 4904.35C-9440.49 4554 -9257.53 4469.44 -8951.74 4650.68C-8645.94 4831.93 -8462.98 4747.37 -8402.86 4397.02C-8342.74 4046.66 -8159.78 3962.11 -7853.98 4143.35C-7548.18 4324.6 -7365.22 4240.04 -7305.11 3889.68C-7244.99 3539.33 -7062.03 3454.77 -6756.23 3636.02C-6450.43 3817.26 -6267.47 3732.71 -6207.35 3382.35C-6147.24 3032 -5964.28 2947.44 -5658.48 3128.68C-5352.68 3309.93 -5169.72 3225.37 -5109.6 2875.02C-5049.48 2524.66 -4866.52 2440.11 -4560.72 2621.35C-4254.92 2802.59 -4071.97 2718.04 -4011.85 2367.68C-3951.73 2017.33 -3768.77 1932.77 -3462.97 2114.02C-3157.17 2295.26 -2974.21 2210.71 -2914.1 1860.35C-2853.98 1510 -2671.02 1425.44 -2365.22 1606.68C-2059.42 1787.93 -1876.46 1703.37 -1816.34 1353.02C-1756.23 1002.66 -1573.27 918.106 -1267.47 1099.35C-961.667 1280.59 -778.708 1196.04 -718.591 845.684C-658.473 495.329 -475.514 410.773 -169.714 592.017C136.085 773.261 319.044 688.706 379.162 338.35C439.28 -12.0048 622.238 -96.5604 928.038 84.6838C1233.84 265.928 1416.8 181.372 1476.91 -168.983C1537.03 -519.338 1719.99 -603.894 2025.79 -422.65C2331.59 -241.406 2514.55 -325.961 2574.67 -676.316C2634.78 -1026.67 2817.74 -1111.23 3123.54 -929.983C3429.34 -748.739 3612.3 -833.294 3672.42 -1183.65M2574.67 -676.316C2634.78 -1026.67 2817.74 -1111.23 3123.54 -929.983C3429.34 -748.739 3612.3 -833.294 3672.42 -1183.65" stroke="white" stroke-width="2"/>
<path d="M-12513.9 6610.35C-12453.8 6260 -12270.8 6175.44 -11965 6356.68C-11659.2 6537.93 -11476.2 6453.37 -11416.1 6103.02C-11356 5752.66 -11173 5668.11 -10867.2 5849.35C-10561.4 6030.6 -10378.5 5946.04 -10318.4 5595.68C-10258.2 5245.33 -10075.3 5160.77 -9769.49 5342.02C-9463.69 5523.26 -9280.73 5438.71 -9220.61 5088.35C-9160.49 4738 -8977.53 4653.44 -8671.74 4834.68C-8365.94 5015.93 -8182.98 4931.37 -8122.86 4581.02C-8062.74 4230.66 -7879.78 4146.11 -7573.98 4327.35C-7268.18 4508.6 -7085.22 4424.04 -7025.11 4073.68C-6964.99 3723.33 -6782.03 3638.77 -6476.23 3820.02C-6170.43 4001.26 -5987.47 3916.71 -5927.35 3566.35C-5867.24 3216 -5684.28 3131.44 -5378.48 3312.68C-5072.68 3493.93 -4889.72 3409.37 -4829.6 3059.02C-4769.48 2708.66 -4586.52 2624.11 -4280.72 2805.35C-3974.92 2986.59 -3791.97 2902.04 -3731.85 2551.68C-3671.73 2201.33 -3488.77 2116.77 -3182.97 2298.02C-2877.17 2479.26 -2694.21 2394.71 -2634.1 2044.35C-2573.98 1694 -2391.02 1609.44 -2085.22 1790.68C-1779.42 1971.93 -1596.46 1887.37 -1536.34 1537.02C-1476.23 1186.66 -1293.27 1102.11 -987.467 1283.35C-681.667 1464.59 -498.708 1380.04 -438.591 1029.68C-378.473 679.329 -195.514 594.773 110.286 776.017C416.085 957.261 599.044 872.706 659.162 522.35C719.28 171.995 902.238 87.4396 1208.04 268.684C1513.84 449.928 1696.8 365.372 1756.91 15.0171C1817.03 -335.338 1999.99 -419.894 2305.79 -238.65C2611.59 -57.4055 2794.55 -141.961 2854.67 -492.316C2914.78 -842.672 3097.74 -927.227 3403.54 -745.983C3709.34 -564.739 3892.3 -649.294 3952.42 -999.65M2854.67 -492.316C2914.78 -842.672 3097.74 -927.227 3403.54 -745.983C3709.34 -564.739 3892.3 -649.294 3952.42 -999.65" stroke="white" stroke-width="2"/>
<path d="M-12293.9 6430.35C-12233.8 6080 -12050.8 5995.44 -11745 6176.68C-11439.2 6357.93 -11256.2 6273.37 -11196.1 5923.02C-11136 5572.66 -10953 5488.11 -10647.2 5669.35C-10341.4 5850.6 -10158.5 5766.04 -10098.4 5415.68C-10038.2 5065.33 -9855.29 4980.77 -9549.49 5162.02C-9243.69 5343.26 -9060.73 5258.71 -9000.61 4908.35C-8940.49 4558 -8757.53 4473.44 -8451.74 4654.68C-8145.94 4835.93 -7962.98 4751.37 -7902.86 4401.02C-7842.74 4050.66 -7659.78 3966.11 -7353.98 4147.35C-7048.18 4328.6 -6865.22 4244.04 -6805.11 3893.68C-6744.99 3543.33 -6562.03 3458.77 -6256.23 3640.02C-5950.43 3821.26 -5767.47 3736.71 -5707.35 3386.35C-5647.24 3036 -5464.28 2951.44 -5158.48 3132.68C-4852.68 3313.93 -4669.72 3229.37 -4609.6 2879.02C-4549.48 2528.66 -4366.52 2444.11 -4060.72 2625.35C-3754.92 2806.59 -3571.97 2722.04 -3511.85 2371.68C-3451.73 2021.33 -3268.77 1936.77 -2962.97 2118.02C-2657.17 2299.26 -2474.21 2214.71 -2414.1 1864.35C-2353.98 1514 -2171.02 1429.44 -1865.22 1610.68C-1559.42 1791.93 -1376.46 1707.37 -1316.34 1357.02C-1256.23 1006.66 -1073.27 922.106 -767.467 1103.35C-461.667 1284.59 -278.708 1200.04 -218.591 849.684C-158.473 499.329 24.4858 414.773 330.286 596.017C636.085 777.261 819.044 692.706 879.162 342.35C939.28 -8.00478 1122.24 -92.5604 1428.04 88.6838C1733.84 269.928 1916.8 185.372 1976.91 -164.983C2037.03 -515.338 2219.99 -599.894 2525.79 -418.65C2831.59 -237.406 3014.55 -321.961 3074.67 -672.316C3134.78 -1022.67 3317.74 -1107.23 3623.54 -925.983C3929.34 -744.739 4112.3 -829.294 4172.42 -1179.65M3074.67 -672.316C3134.78 -1022.67 3317.74 -1107.23 3623.54 -925.983C3929.34 -744.739 4112.3 -829.294 4172.42 -1179.65" stroke="white" stroke-width="2"/>
<path d="M-13413.9 6650.35C-13353.8 6300 -13170.8 6215.44 -12865 6396.68C-12559.2 6577.93 -12376.2 6493.37 -12316.1 6143.02C-12256 5792.66 -12073 5708.11 -11767.2 5889.35C-11461.4 6070.6 -11278.5 5986.04 -11218.4 5635.68C-11158.2 5285.33 -10975.3 5200.77 -10669.5 5382.02C-10363.7 5563.26 -10180.7 5478.71 -10120.6 5128.35C-10060.5 4778 -9877.53 4693.44 -9571.74 4874.68C-9265.94 5055.93 -9082.98 4971.37 -9022.86 4621.02C-8962.74 4270.66 -8779.78 4186.11 -8473.98 4367.35C-8168.18 4548.6 -7985.22 4464.04 -7925.11 4113.68C-7864.99 3763.33 -7682.03 3678.77 -7376.23 3860.02C-7070.43 4041.26 -6887.47 3956.71 -6827.35 3606.35C-6767.24 3256 -6584.28 3171.44 -6278.48 3352.68C-5972.68 3533.93 -5789.72 3449.37 -5729.6 3099.02C-5669.48 2748.66 -5486.52 2664.11 -5180.72 2845.35C-4874.92 3026.59 -4691.97 2942.04 -4631.85 2591.68C-4571.73 2241.33 -4388.77 2156.77 -4082.97 2338.02C-3777.17 2519.26 -3594.21 2434.71 -3534.1 2084.35C-3473.98 1734 -3291.02 1649.44 -2985.22 1830.68C-2679.42 2011.93 -2496.46 1927.37 -2436.34 1577.02C-2376.23 1226.66 -2193.27 1142.11 -1887.47 1323.35C-1581.67 1504.59 -1398.71 1420.04 -1338.59 1069.68C-1278.47 719.329 -1095.51 634.773 -789.714 816.017C-483.915 997.261 -300.956 912.706 -240.838 562.35C-180.72 211.995 2.23842 127.44 308.038 308.684C613.838 489.928 796.797 405.372 856.914 55.0171C917.032 -295.338 1099.99 -379.894 1405.79 -198.65C1711.59 -17.4055 1894.55 -101.961 1954.67 -452.316C2014.78 -802.672 2197.74 -887.227 2503.54 -705.983C2809.34 -524.739 2992.3 -609.294 3052.42 -959.65M1954.67 -452.316C2014.78 -802.672 2197.74 -887.227 2503.54 -705.983C2809.34 -524.739 2992.3 -609.294 3052.42 -959.65" stroke="white" stroke-width="2"/>
<path d="M-13381.9 6450.35C-13321.8 6100 -13138.8 6015.44 -12833 6196.68C-12527.2 6377.93 -12344.2 6293.37 -12284.1 5943.02C-12224 5592.66 -12041 5508.11 -11735.2 5689.35C-11429.4 5870.6 -11246.5 5786.04 -11186.4 5435.68C-11126.2 5085.33 -10943.3 5000.77 -10637.5 5182.02C-10331.7 5363.26 -10148.7 5278.71 -10088.6 4928.35C-10028.5 4578 -9845.53 4493.44 -9539.74 4674.68C-9233.94 4855.93 -9050.98 4771.37 -8990.86 4421.02C-8930.74 4070.66 -8747.78 3986.11 -8441.98 4167.35C-8136.18 4348.6 -7953.22 4264.04 -7893.11 3913.68C-7832.99 3563.33 -7650.03 3478.77 -7344.23 3660.02C-7038.43 3841.26 -6855.47 3756.71 -6795.35 3406.35C-6735.24 3056 -6552.28 2971.44 -6246.48 3152.68C-5940.68 3333.93 -5757.72 3249.37 -5697.6 2899.02C-5637.48 2548.66 -5454.52 2464.11 -5148.72 2645.35C-4842.92 2826.59 -4659.97 2742.04 -4599.85 2391.68C-4539.73 2041.33 -4356.77 1956.77 -4050.97 2138.02C-3745.17 2319.26 -3562.21 2234.71 -3502.1 1884.35C-3441.98 1534 -3259.02 1449.44 -2953.22 1630.68C-2647.42 1811.93 -2464.46 1727.37 -2404.34 1377.02C-2344.23 1026.66 -2161.27 942.106 -1855.47 1123.35C-1549.67 1304.59 -1366.71 1220.04 -1306.59 869.684C-1246.47 519.329 -1063.51 434.773 -757.714 616.017C-451.915 797.261 -268.956 712.706 -208.838 362.35C-148.72 11.9952 34.2384 -72.5604 340.038 108.684C645.838 289.928 828.797 205.372 888.914 -144.983C949.032 -495.338 1131.99 -579.894 1437.79 -398.65C1743.59 -217.406 1926.55 -301.961 1986.67 -652.316C2046.78 -1002.67 2229.74 -1087.23 2535.54 -905.983C2841.34 -724.739 3024.3 -809.294 3084.42 -1159.65M1986.67 -652.316C2046.78 -1002.67 2229.74 -1087.23 2535.54 -905.983C2841.34 -724.739 3024.3 -809.294 3084.42 -1159.65" stroke="white" stroke-width="2"/>
<path d="M-13869.9 6666.35C-13809.8 6316 -13626.8 6231.44 -13321 6412.68C-13015.2 6593.93 -12832.2 6509.37 -12772.1 6159.02C-12712 5808.66 -12529 5724.11 -12223.2 5905.35C-11917.4 6086.6 -11734.5 6002.04 -11674.4 5651.68C-11614.2 5301.33 -11431.3 5216.77 -11125.5 5398.02C-10819.7 5579.26 -10636.7 5494.71 -10576.6 5144.35C-10516.5 4794 -10333.5 4709.44 -10027.7 4890.68C-9721.94 5071.93 -9538.98 4987.37 -9478.86 4637.02C-9418.74 4286.66 -9235.78 4202.11 -8929.98 4383.35C-8624.18 4564.6 -8441.22 4480.04 -8381.11 4129.68C-8320.99 3779.33 -8138.03 3694.77 -7832.23 3876.02C-7526.43 4057.26 -7343.47 3972.71 -7283.35 3622.35C-7223.24 3272 -7040.28 3187.44 -6734.48 3368.68C-6428.68 3549.93 -6245.72 3465.37 -6185.6 3115.02C-6125.48 2764.66 -5942.52 2680.11 -5636.72 2861.35C-5330.92 3042.59 -5147.97 2958.04 -5087.85 2607.68C-5027.73 2257.33 -4844.77 2172.77 -4538.97 2354.02C-4233.17 2535.26 -4050.21 2450.71 -3990.1 2100.35C-3929.98 1750 -3747.02 1665.44 -3441.22 1846.68C-3135.42 2027.93 -2952.46 1943.37 -2892.34 1593.02C-2832.23 1242.66 -2649.27 1158.11 -2343.47 1339.35C-2037.67 1520.59 -1854.71 1436.04 -1794.59 1085.68C-1734.47 735.329 -1551.51 650.773 -1245.71 832.017C-939.915 1013.26 -756.956 928.706 -696.838 578.35C-636.72 227.995 -453.762 143.44 -147.962 324.684C157.838 505.928 340.797 421.372 400.914 71.0171C461.032 -279.338 643.991 -363.894 949.791 -182.65C1255.59 -1.40551 1438.55 -85.9611 1498.67 -436.316C1558.78 -786.672 1741.74 -871.227 2047.54 -689.983C2353.34 -508.739 2536.3 -593.294 2596.42 -943.65M1498.67 -436.316C1558.78 -786.672 1741.74 -871.227 2047.54 -689.983C2353.34 -508.739 2536.3 -593.294 2596.42 -943.65" stroke="white" stroke-width="2"/>
<path d="M-14105.9 6734.35C-14045.8 6384 -13862.8 6299.44 -13557 6480.68C-13251.2 6661.93 -13068.2 6577.37 -13008.1 6227.02C-12948 5876.66 -12765 5792.11 -12459.2 5973.35C-12153.4 6154.6 -11970.5 6070.04 -11910.4 5719.68C-11850.2 5369.33 -11667.3 5284.77 -11361.5 5466.02C-11055.7 5647.26 -10872.7 5562.71 -10812.6 5212.35C-10752.5 4862 -10569.5 4777.44 -10263.7 4958.68C-9957.94 5139.93 -9774.98 5055.37 -9714.86 4705.02C-9654.74 4354.66 -9471.78 4270.11 -9165.98 4451.35C-8860.18 4632.6 -8677.22 4548.04 -8617.11 4197.68C-8556.99 3847.33 -8374.03 3762.77 -8068.23 3944.02C-7762.43 4125.26 -7579.47 4040.71 -7519.35 3690.35C-7459.24 3340 -7276.28 3255.44 -6970.48 3436.68C-6664.68 3617.93 -6481.72 3533.37 -6421.6 3183.02C-6361.48 2832.66 -6178.52 2748.11 -5872.72 2929.35C-5566.92 3110.59 -5383.97 3026.04 -5323.85 2675.68C-5263.73 2325.33 -5080.77 2240.77 -4774.97 2422.02C-4469.17 2603.26 -4286.21 2518.71 -4226.1 2168.35C-4165.98 1818 -3983.02 1733.44 -3677.22 1914.68C-3371.42 2095.93 -3188.46 2011.37 -3128.34 1661.02C-3068.23 1310.66 -2885.27 1226.11 -2579.47 1407.35C-2273.67 1588.59 -2090.71 1504.04 -2030.59 1153.68C-1970.47 803.329 -1787.51 718.773 -1481.71 900.017C-1175.91 1081.26 -992.956 996.706 -932.838 646.35C-872.72 295.995 -689.762 211.44 -383.962 392.684C-78.162 573.928 104.797 489.372 164.914 139.017C225.032 -211.338 407.991 -295.894 713.791 -114.65C1019.59 66.5945 1202.55 -17.9611 1262.67 -368.316C1322.78 -718.672 1505.74 -803.227 1811.54 -621.983C2117.34 -440.739 2300.3 -525.294 2360.42 -875.65M1262.67 -368.316C1322.78 -718.672 1505.74 -803.227 1811.54 -621.983C2117.34 -440.739 2300.3 -525.294 2360.42 -875.65" stroke="white" stroke-width="2"/>
<path d="M-13920.9 7158.35C-13860.8 6808 -13677.8 6723.44 -13372 6904.68C-13066.2 7085.93 -12883.2 7001.37 -12823.1 6651.02C-12763 6300.66 -12580 6216.11 -12274.2 6397.35C-11968.4 6578.59 -11785.5 6494.04 -11725.4 6143.68C-11665.2 5793.33 -11482.3 5708.77 -11176.5 5890.02C-10870.7 6071.26 -10687.7 5986.71 -10627.6 5636.35C-10567.5 5286 -10384.5 5201.44 -10078.7 5382.68C-9772.94 5563.93 -9589.98 5479.37 -9529.86 5129.02C-9469.74 4778.66 -9286.78 4694.11 -8980.98 4875.35C-8675.18 5056.59 -8492.22 4972.04 -8432.11 4621.68C-8371.99 4271.33 -8189.03 4186.77 -7883.23 4368.02C-7577.43 4549.26 -7394.47 4464.71 -7334.35 4114.35C-7274.24 3764 -7091.28 3679.44 -6785.48 3860.68C-6479.68 4041.93 -6296.72 3957.37 -6236.6 3607.02C-6176.48 3256.66 -5993.52 3172.11 -5687.72 3353.35C-5381.92 3534.59 -5198.97 3450.04 -5138.85 3099.68C-5078.73 2749.33 -4895.77 2664.77 -4589.97 2846.02C-4284.17 3027.26 -4101.21 2942.71 -4041.1 2592.35C-3980.98 2241.99 -3798.02 2157.44 -3492.22 2338.68C-3186.42 2519.93 -3003.46 2435.37 -2943.34 2085.02C-2883.23 1734.66 -2700.27 1650.11 -2394.47 1831.35C-2088.67 2012.59 -1905.71 1928.04 -1845.59 1577.68C-1785.47 1227.33 -1602.51 1142.77 -1296.71 1324.02C-990.915 1505.26 -807.956 1420.71 -747.838 1070.35C-687.72 719.995 -504.762 635.439 -198.962 816.683C106.838 997.927 289.797 913.372 349.914 563.017C410.032 212.661 592.991 128.106 898.791 309.35C1204.59 490.594 1387.55 406.038 1447.67 55.6832C1507.78 -294.672 1690.74 -379.228 1996.54 -197.984C2302.34 -16.7394 2485.3 -101.295 2545.42 -451.65M1447.67 55.6832C1507.78 -294.672 1690.74 -379.228 1996.54 -197.984C2302.34 -16.7394 2485.3 -101.295 2545.42 -451.65" stroke="white" stroke-width="2"/>
<path d="M-13172.9 7368.35C-13112.8 7018 -12929.8 6933.44 -12624 7114.68C-12318.2 7295.93 -12135.2 7211.37 -12075.1 6861.02C-12015 6510.66 -11832 6426.11 -11526.2 6607.35C-11220.4 6788.59 -11037.5 6704.04 -10977.4 6353.68C-10917.2 6003.33 -10734.3 5918.77 -10428.5 6100.02C-10122.7 6281.26 -9939.73 6196.71 -9879.61 5846.35C-9819.49 5496 -9636.53 5411.44 -9330.74 5592.68C-9024.94 5773.93 -8841.98 5689.37 -8781.86 5339.02C-8721.74 4988.66 -8538.78 4904.11 -8232.98 5085.35C-7927.18 5266.59 -7744.22 5182.04 -7684.11 4831.68C-7623.99 4481.33 -7441.03 4396.77 -7135.23 4578.02C-6829.43 4759.26 -6646.47 4674.71 -6586.35 4324.35C-6526.24 3974 -6343.28 3889.44 -6037.48 4070.68C-5731.68 4251.93 -5548.72 4167.37 -5488.6 3817.02C-5428.48 3466.66 -5245.52 3382.11 -4939.72 3563.35C-4633.92 3744.59 -4450.97 3660.04 -4390.85 3309.68C-4330.73 2959.33 -4147.77 2874.77 -3841.97 3056.02C-3536.17 3237.26 -3353.21 3152.71 -3293.1 2802.35C-3232.98 2451.99 -3050.02 2367.44 -2744.22 2548.68C-2438.42 2729.93 -2255.46 2645.37 -2195.34 2295.02C-2135.23 1944.66 -1952.27 1860.11 -1646.47 2041.35C-1340.67 2222.59 -1157.71 2138.04 -1097.59 1787.68C-1037.47 1437.33 -854.514 1352.77 -548.714 1534.02C-242.915 1715.26 -59.9558 1630.71 0.161905 1280.35C60.2796 929.995 243.238 845.439 549.038 1026.68C854.838 1207.93 1037.8 1123.37 1097.91 773.017C1158.03 422.661 1340.99 338.106 1646.79 519.35C1952.59 700.594 2135.55 616.038 2195.67 265.683C2255.78 -84.6721 2438.74 -169.228 2744.54 12.0165C3050.34 193.261 3233.3 108.705 3293.42 -241.65M2195.67 265.683C2255.78 -84.6721 2438.74 -169.228 2744.54 12.0165C3050.34 193.261 3233.3 108.705 3293.42 -241.65" stroke="white" stroke-width="2"/>
<path d="M-13735.9 7032.35C-13675.8 6682 -13492.8 6597.44 -13187 6778.68C-12881.2 6959.93 -12698.2 6875.37 -12638.1 6525.02C-12578 6174.66 -12395 6090.11 -12089.2 6271.35C-11783.4 6452.59 -11600.5 6368.04 -11540.4 6017.68C-11480.2 5667.33 -11297.3 5582.77 -10991.5 5764.02C-10685.7 5945.26 -10502.7 5860.71 -10442.6 5510.35C-10382.5 5160 -10199.5 5075.44 -9893.74 5256.68C-9587.94 5437.93 -9404.98 5353.37 -9344.86 5003.02C-9284.74 4652.66 -9101.78 4568.11 -8795.98 4749.35C-8490.18 4930.59 -8307.22 4846.04 -8247.11 4495.68C-8186.99 4145.33 -8004.03 4060.77 -7698.23 4242.02C-7392.43 4423.26 -7209.47 4338.71 -7149.35 3988.35C-7089.24 3638 -6906.28 3553.44 -6600.48 3734.68C-6294.68 3915.93 -6111.72 3831.37 -6051.6 3481.02C-5991.48 3130.66 -5808.52 3046.11 -5502.72 3227.35C-5196.92 3408.59 -5013.97 3324.04 -4953.85 2973.68C-4893.73 2623.33 -4710.77 2538.77 -4404.97 2720.02C-4099.17 2901.26 -3916.21 2816.71 -3856.1 2466.35C-3795.98 2115.99 -3613.02 2031.44 -3307.22 2212.68C-3001.42 2393.93 -2818.46 2309.37 -2758.34 1959.02C-2698.23 1608.66 -2515.27 1524.11 -2209.47 1705.35C-1903.67 1886.59 -1720.71 1802.04 -1660.59 1451.68C-1600.47 1101.33 -1417.51 1016.77 -1111.71 1198.02C-805.915 1379.26 -622.956 1294.71 -562.838 944.35C-502.72 593.995 -319.762 509.439 -13.9618 690.683C291.838 871.927 474.797 787.372 534.914 437.017C595.032 86.6613 777.991 2.10576 1083.79 183.35C1389.59 364.594 1572.55 280.038 1632.67 -70.3168C1692.78 -420.672 1875.74 -505.228 2181.54 -323.984C2487.34 -142.739 2670.3 -227.295 2730.42 -577.65M1632.67 -70.3168C1692.78 -420.672 1875.74 -505.228 2181.54 -323.984C2487.34 -142.739 2670.3 -227.295 2730.42 -577.65" stroke="white" stroke-width="2"/>
<path d="M-14031.9 6958.35C-13971.8 6608 -13788.8 6523.44 -13483 6704.68C-13177.2 6885.93 -12994.2 6801.37 -12934.1 6451.02C-12874 6100.66 -12691 6016.11 -12385.2 6197.35C-12079.4 6378.6 -11896.5 6294.04 -11836.4 5943.68C-11776.2 5593.33 -11593.3 5508.77 -11287.5 5690.02C-10981.7 5871.26 -10798.7 5786.71 -10738.6 5436.35C-10678.5 5086 -10495.5 5001.44 -10189.7 5182.68C-9883.94 5363.93 -9700.98 5279.37 -9640.86 4929.02C-9580.74 4578.66 -9397.78 4494.11 -9091.98 4675.35C-8786.18 4856.6 -8603.22 4772.04 -8543.11 4421.68C-8482.99 4071.33 -8300.03 3986.77 -7994.23 4168.02C-7688.43 4349.26 -7505.47 4264.71 -7445.35 3914.35C-7385.24 3564 -7202.28 3479.44 -6896.48 3660.68C-6590.68 3841.93 -6407.72 3757.37 -6347.6 3407.02C-6287.48 3056.66 -6104.52 2972.11 -5798.72 3153.35C-5492.92 3334.59 -5309.97 3250.04 -5249.85 2899.68C-5189.73 2549.33 -5006.77 2464.77 -4700.97 2646.02C-4395.17 2827.26 -4212.21 2742.71 -4152.1 2392.35C-4091.98 2042 -3909.02 1957.44 -3603.22 2138.68C-3297.42 2319.93 -3114.46 2235.37 -3054.34 1885.02C-2994.23 1534.66 -2811.27 1450.11 -2505.47 1631.35C-2199.67 1812.59 -2016.71 1728.04 -1956.59 1377.68C-1896.47 1027.33 -1713.51 942.773 -1407.71 1124.02C-1101.91 1305.26 -918.956 1220.71 -858.838 870.35C-798.72 519.995 -615.762 435.44 -309.962 616.684C-4.16201 797.928 178.797 713.372 238.914 363.017C299.032 12.6618 481.991 -71.8937 787.791 109.35C1093.59 290.594 1276.55 206.039 1336.67 -144.316C1396.78 -494.672 1579.74 -579.227 1885.54 -397.983C2191.34 -216.739 2374.3 -301.294 2434.42 -651.65M1336.67 -144.316C1396.78 -494.672 1579.74 -579.227 1885.54 -397.983C2191.34 -216.739 2374.3 -301.294 2434.42 -651.65" stroke="white" stroke-width="2"/>
</svg>
