<svg width="16" height="17" viewBox="0 0 16 17" fill="none" xmlns="http://www.w3.org/2000/svg">
<path d="M8 10.8333C8.65378 10.8333 9.20622 10.608 9.65733 10.1573C10.108 9.70578 10.3333 9.15333 10.3333 8.5C10.3333 7.84622 10.108 7.29378 9.65733 6.84267C9.20578 6.392 8.65333 6.16667 8 6.16667C7.34622 6.16667 6.79378 6.392 6.34267 6.84267C5.892 7.29422 5.66667 7.84667 5.66667 8.5C5.66667 9.15378 5.892 9.70622 6.34267 10.1573C6.79422 10.608 7.34667 10.8333 8 10.8333ZM8 9.16667C7.81111 9.16667 7.65289 9.10267 7.52533 8.97467C7.39778 8.84667 7.33378 8.68844 7.33333 8.5C7.33333 8.31111 7.39733 8.15289 7.52533 8.02533C7.65333 7.89778 7.81156 7.83378 8 7.83333C8.18889 7.83333 8.34733 7.89733 8.47533 8.02533C8.60333 8.15333 8.66711 8.31156 8.66667 8.5C8.66667 8.68889 8.60267 8.84733 8.47467 8.97533C8.34667 9.10333 8.18844 9.16711 8 9.16667ZM8.002 14.5C7.17267 14.5 6.39267 14.3427 5.662 14.028C4.93178 13.7129 4.29644 13.2853 3.756 12.7453C3.21556 12.2058 2.78778 11.5711 2.47267 10.8413C2.15756 10.1116 2 9.33178 2 8.502C2 7.67267 2.15733 6.89267 2.472 6.162C2.78711 5.43178 3.21467 4.79644 3.75467 4.256C4.29422 3.71556 4.92889 3.28778 5.65867 2.97267C6.38844 2.65756 7.16822 2.5 7.998 2.5C8.82733 2.5 9.60733 2.65733 10.338 2.972C11.0682 3.28711 11.7036 3.71467 12.244 4.25467C12.7844 4.79422 13.2122 5.42889 13.5273 6.15867C13.8424 6.88844 14 7.66822 14 8.498C14 9.32733 13.8427 10.1073 13.528 10.838C13.2129 11.5682 12.7853 12.2036 12.2453 12.744C11.7058 13.2844 11.0711 13.7122 10.3413 14.0273C9.61156 14.3424 8.83178 14.5 8.002 14.5ZM8 13.8333C9.48889 13.8333 10.75 13.3167 11.7833 12.2833C12.8167 11.25 13.3333 9.98889 13.3333 8.5C13.3333 7.01111 12.8167 5.75 11.7833 4.71667C10.75 3.68333 9.48889 3.16667 8 3.16667C6.51111 3.16667 5.25 3.68333 4.21667 4.71667C3.18333 5.75 2.66667 7.01111 2.66667 8.5C2.66667 9.98889 3.18333 11.25 4.21667 12.2833C5.25 13.3167 6.51111 13.8333 8 13.8333Z" fill="white"/>
</svg>
