<svg width="14" height="15" viewBox="0 0 14 15" fill="none" xmlns="http://www.w3.org/2000/svg">
<path d="M1 7.6224C1 6.249 1 5.5626 1.312 4.9938C1.6228 4.4244 2.1922 4.0716 3.3304 3.3648L4.5304 2.6202C5.7334 1.8732 6.3352 1.5 7 1.5C7.6648 1.5 8.266 1.8732 9.4696 2.6202L10.6696 3.3648C11.8078 4.0716 12.3772 4.4244 12.6886 4.9938C13 5.5626 13 6.249 13 7.6218V8.535C13 10.875 13 12.0456 12.2968 12.7728C11.5942 13.5 10.4626 13.5 8.2 13.5H5.8C3.5374 13.5 2.4058 13.5 1.7032 12.7728C1 12.0456 1 10.8756 1 8.535V7.6224Z" stroke="white" stroke-width="1.5"/>
<path d="M7 9.2998V11.0998" stroke="white" stroke-width="1.5" stroke-linecap="round"/>
</svg>
