<svg width="38" height="38" viewBox="0 0 38 38" fill="none" xmlns="http://www.w3.org/2000/svg">
<rect x="0.5" y="0.5" width="37" height="37" rx="18.5" fill="#774F96"/>
<rect x="0.5" y="0.5" width="37" height="37" rx="18.5" stroke="#774F96"/>
<path d="M17.875 24.925V13.075C17.875 11.95 17.4 11.5 16.2 11.5H13.175C11.975 11.5 11.5 11.95 11.5 13.075V24.925C11.5 26.05 11.975 26.5 13.175 26.5H16.2C17.4 26.5 17.875 26.05 17.875 24.925Z" fill="white"/>
<path d="M26.5 24.925V13.075C26.5 11.95 26.025 11.5 24.825 11.5H21.8C20.6083 11.5 20.125 11.95 20.125 13.075V24.925C20.125 26.05 20.6 26.5 21.8 26.5H24.825C26.025 26.5 26.5 26.05 26.5 24.925Z" fill="white"/>
</svg>
