<svg width="20" height="20" viewBox="0 0 20 20" fill="none" xmlns="http://www.w3.org/2000/svg">
<path d="M8.375 4.075V15.925C8.375 16.4322 8.26574 16.6564 8.14469 16.7704C8.01599 16.8916 7.75726 17 7.2 17H4.175C3.61774 17 3.35901 16.8916 3.23031 16.7704C3.10926 16.6564 3 16.4322 3 15.925V4.075C3 3.56781 3.10926 3.34362 3.23031 3.2296C3.35901 3.10839 3.61774 3 4.175 3H7.2C7.75726 3 8.01599 3.10839 8.14469 3.2296C8.26574 3.34362 8.375 3.56781 8.375 4.075Z" stroke="#F38BDC"/>
<path d="M17 4.075V15.925C17 16.4322 16.8907 16.6564 16.7697 16.7704C16.641 16.8916 16.3823 17 15.825 17H12.8C12.2427 17 11.984 16.8916 11.8553 16.7704C11.7343 16.6564 11.625 16.4322 11.625 15.925V4.075C11.625 3.56991 11.7354 3.34506 11.8577 3.23026C11.9881 3.10799 12.2479 3 12.8 3H15.825C16.3823 3 16.641 3.10839 16.7697 3.2296C16.8907 3.34362 17 3.56781 17 4.075Z" stroke="#F38BDC"/>
</svg>
