<svg width="20" height="21" viewBox="0 0 20 21" fill="none" xmlns="http://www.w3.org/2000/svg">
<path d="M18.3332 13.0002V8.0002C18.3332 3.83354 16.6666 2.16687 12.4999 2.16687H7.4999C3.33323 2.16687 1.66656 3.83354 1.66656 8.0002V13.0002C1.66656 17.1669 3.33323 18.8335 7.4999 18.8335H12.4999C16.6666 18.8335 18.3332 17.1669 18.3332 13.0002Z" stroke="white" stroke-width="1.5" stroke-linecap="round" stroke-linejoin="round"/>
<path d="M5.83344 2.58313V18.4165" stroke="white" stroke-width="1.5" stroke-linecap="round" stroke-linejoin="round"/>
<path d="M9.55832 14.5C10.2441 14.5 10.8 13.9441 10.8 13.2583C10.8 12.5726 10.2441 12.0167 9.55832 12.0167C8.87256 12.0167 8.31665 12.5726 8.31665 13.2583C8.31665 13.9441 8.87256 14.5 9.55832 14.5Z" stroke="white" stroke-width="1.5" stroke-linecap="round" stroke-linejoin="round"/>
<path d="M15.3584 12.4249V7.56652C15.3584 6.53318 14.7084 6.39156 14.0501 6.56656L11.5667 7.24156C11.1167 7.36656 10.8 7.72485 10.8 8.24152V9.10821V9.69156V13.2499" stroke="white" stroke-width="1.5" stroke-linecap="round" stroke-linejoin="round"/>
<path d="M14.1084 13.6665C14.7941 13.6665 15.35 13.1106 15.35 12.4249C15.35 11.7391 14.7941 11.1832 14.1084 11.1832C13.4226 11.1832 12.8667 11.7391 12.8667 12.4249C12.8667 13.1106 13.4226 13.6665 14.1084 13.6665Z" stroke="white" stroke-width="1.5" stroke-linecap="round" stroke-linejoin="round"/>
<path d="M10.8 9.69997L15.3584 8.45831" stroke="white" stroke-width="1.5" stroke-linecap="round" stroke-linejoin="round"/>
</svg>
