<svg width="18" height="22" viewBox="0 0 18 22" fill="none" xmlns="http://www.w3.org/2000/svg">
<path d="M9 12.3331C12.3532 12.3331 15.044 9.64246 15.044 6.29105H13.544C13.544 8.8137 11.5251 10.8331 9 10.8331V12.3331ZM2.95601 6.29105C2.95601 9.64255 5.64794 12.3331 9 12.3331V10.8331C6.47585 10.8331 4.45601 8.81361 4.45601 6.29105H2.95601ZM9 0.25C5.64813 0.25 2.95601 2.93937 2.95601 6.29105H4.45601C4.45601 3.76868 6.47567 1.75 9 1.75V0.25ZM15.044 6.29105C15.044 2.93946 12.353 0.25 9 0.25V1.75C11.5252 1.75 13.544 3.76859 13.544 6.29105H15.044ZM0.25 17.575C0.25 18.4422 0.548936 19.1772 1.0871 19.7644C1.60978 20.3347 2.32628 20.7323 3.12303 21.0145C4.70652 21.5752 6.81295 21.75 9 21.75V20.25C6.84942 20.25 4.95586 20.0723 3.62375 19.6005C2.9627 19.3664 2.49251 19.0778 2.19294 18.7509C1.90886 18.4409 1.75 18.0678 1.75 17.575H0.25ZM9 13.4239C6.8258 13.4239 4.72019 13.5923 3.13473 14.146C2.33712 14.4246 1.61797 14.8185 1.09269 15.3863C0.551428 15.9715 0.25 16.7061 0.25 17.575H1.75C1.75 17.0833 1.90925 16.7126 2.19383 16.4049C2.49438 16.08 2.96625 15.7937 3.6293 15.5621C4.96519 15.0956 6.85958 14.9239 9 14.9239V13.4239ZM17.75 17.599C17.75 16.7318 17.4512 15.9969 16.9131 15.4096C16.3905 14.8393 15.6741 14.4416 14.8774 14.1595C13.294 13.5987 11.1875 13.4239 9 13.4239V14.9239C11.1511 14.9239 13.0446 15.1017 14.3766 15.5734C15.0376 15.8075 15.5077 16.0961 15.8071 16.423C16.0912 16.7329 16.25 17.1061 16.25 17.599H17.75ZM9 21.75C11.1742 21.75 13.2798 21.5816 14.8653 21.0279C15.6629 20.7494 16.382 20.3555 16.9073 19.7876C17.4486 19.2025 17.75 18.4679 17.75 17.599H16.25C16.25 18.0906 16.0908 18.4614 15.8062 18.769C15.5056 19.0939 15.0338 19.3802 14.3707 19.6118C13.0348 20.0784 11.1404 20.25 9 20.25V21.75Z" fill="white"/>
</svg>
