<svg width="51" height="48" viewBox="0 0 51 48" fill="none" xmlns="http://www.w3.org/2000/svg">
<path d="M46.75 32.38C46.75 39.66 42.1388 44 34.4038 44H31.875C30.7062 44 29.75 43.1 29.75 42V30.46C29.75 29.92 30.2175 29.46 30.7912 29.46L34.5312 29.4C34.8288 29.38 35.0838 29.18 35.1475 28.9L35.8913 25.08C35.955 24.72 35.6575 24.38 35.2537 24.38L30.7275 24.44C30.1325 24.44 29.665 24 29.6438 23.46L29.5588 18.56C29.5588 18.24 29.835 17.96 30.1962 17.96L35.2962 17.88C35.6575 17.88 35.9338 17.62 35.9338 17.28L35.8487 12.48C35.8487 12.14 35.5725 11.88 35.2113 11.88L29.4737 11.96C25.9462 12.02 23.1413 14.74 23.205 18.06L23.3113 23.56C23.3325 24.12 22.865 24.56 22.27 24.58L19.72 24.62C19.3587 24.62 19.0825 24.88 19.0825 25.22L19.1463 29.02C19.1463 29.36 19.4225 29.62 19.7837 29.62L22.3338 29.58C22.9288 29.58 23.3962 30.02 23.4175 30.56L23.6087 41.96C23.63 43.08 22.6737 44 21.4837 44H16.5962C8.86124 44 4.25 39.66 4.25 32.36V15.62C4.25 8.33999 8.86124 4 16.5962 4H34.4038C42.1388 4 46.75 8.33999 46.75 15.62V32.38Z" fill="#AF96BC"/>
</svg>
