<svg width="90" height="90" viewBox="0 0 90 90" fill="none" xmlns="http://www.w3.org/2000/svg">
<circle cx="45" cy="45" r="44.5" fill="#965FBD" stroke="#965FBD"/>
<path d="M57.6821 48.016C57.5314 48.1707 56.9625 48.832 56.4325 49.376C53.3255 52.7973 45.2203 58.3973 40.9781 60.1067C40.3338 60.3813 38.705 60.9627 37.8347 61C37.0008 61 36.2059 60.808 35.4473 60.4187C34.5017 59.8747 33.7431 59.0187 33.3275 58.008C33.0599 57.3067 32.6443 55.208 32.6443 55.1707C32.2286 52.8747 32 49.144 32 45.0213C32 41.0933 32.2286 37.5147 32.5689 35.184C32.6079 35.1467 33.0235 32.5387 33.4782 31.6453C34.3121 30.0133 35.9409 29 37.684 29H37.8347C38.97 29.04 41.3574 30.0533 41.3574 30.0907C45.371 31.8027 53.2892 37.128 56.4715 40.6667C56.4715 40.6667 57.3678 41.576 57.7574 42.144C58.3653 42.96 58.6667 43.9707 58.6667 44.9813C58.6667 46.1093 58.3263 47.16 57.6821 48.016Z" fill="#7B3BAD"/>
</svg>
