<svg width="24" height="24" viewBox="0 0 24 24" fill="none" xmlns="http://www.w3.org/2000/svg">
<path fill-rule="evenodd" clip-rule="evenodd" d="M6.36493 13.6784C6.36493 16.8094 8.90293 19.3474 12.0339 19.3474C15.1659 19.3474 17.7039 16.8094 17.7039 13.6784" fill="#686472"/>
<path d="M6.36493 13.6784C6.36493 16.8094 8.90293 19.3474 12.0339 19.3474C15.1659 19.3474 17.7039 16.8094 17.7039 13.6784" stroke="#686472" stroke-width="1.5" stroke-linecap="round" stroke-linejoin="round"/>
<path fill-rule="evenodd" clip-rule="evenodd" d="M17.7037 10.423V8.169C17.7037 5.038 15.1657 2.5 12.0337 2.5C8.90275 2.5 6.36475 5.038 6.36475 8.169V10.423" fill="#686472"/>
<path d="M17.7037 10.423V8.169C17.7037 5.038 15.1657 2.5 12.0337 2.5C8.90275 2.5 6.36475 5.038 6.36475 8.169V10.423" stroke="#686472" stroke-width="1.5" stroke-linecap="round" stroke-linejoin="round"/>
<path fill-rule="evenodd" clip-rule="evenodd" d="M12.0338 21.4997V19.3477V21.4997Z" fill="#686472"/>
<path d="M12.0338 21.4997V19.3477" stroke="#686472" stroke-width="1.5" stroke-linecap="round" stroke-linejoin="round"/>
<path fill-rule="evenodd" clip-rule="evenodd" d="M4.90002 13.6784H19.168H4.90002Z" fill="#686472"/>
<path d="M4.90002 13.6784H19.168" stroke="#686472" stroke-width="1.5" stroke-linecap="round" stroke-linejoin="round"/>
</svg>
