<svg width="24" height="24" viewBox="0 0 24 24" fill="none" xmlns="http://www.w3.org/2000/svg">
<path fill-rule="evenodd" clip-rule="evenodd" d="M18.8891 9.55409C18.8891 17.5731 20.0434 21.1979 12.2796 21.1979C4.51484 21.1979 5.69294 17.5731 5.69294 9.55409" fill="#686472"/>
<path d="M18.8891 9.55409C18.8891 17.5731 20.0434 21.1979 12.2796 21.1979C4.51484 21.1979 5.69294 17.5731 5.69294 9.55409" stroke="#686472" stroke-width="1.5" stroke-linecap="round" stroke-linejoin="round"/>
<path fill-rule="evenodd" clip-rule="evenodd" d="M20.3651 6.47981H4.21466H20.3651Z" fill="#686472"/>
<path d="M20.3651 6.47981H4.21466" stroke="#686472" stroke-width="1.5" stroke-linecap="round" stroke-linejoin="round"/>
<path fill-rule="evenodd" clip-rule="evenodd" d="M15.7148 6.47981C15.7148 6.47981 16.2434 2.7141 12.2891 2.7141C8.33578 2.7141 8.86435 6.47981 8.86435 6.47981" fill="#686472"/>
<path d="M15.7148 6.47981C15.7148 6.47981 16.2434 2.7141 12.2891 2.7141C8.33578 2.7141 8.86435 6.47981 8.86435 6.47981" stroke="#686472" stroke-width="1.5" stroke-linecap="round" stroke-linejoin="round"/>
</svg>
