<svg width="40" height="38" viewBox="0 0 40 38" fill="none" xmlns="http://www.w3.org/2000/svg">
<path d="M8.00001 11.3003C9.47248 11.3003 10.7292 10.7796 11.7707 9.73792C12.8125 8.69627 13.3334 7.43913 13.3334 5.96696C13.3334 4.49493 12.8125 3.2378 11.7707 2.19601C10.7292 1.15436 9.47241 0.633423 8.00001 0.633423C6.5277 0.633423 5.27086 1.15436 4.22921 2.19601C3.18763 3.2378 2.6667 4.49464 2.6667 5.96696C2.6667 7.43943 3.18763 8.69627 4.22921 9.73792C5.27086 10.7793 6.5277 11.3003 8.00001 11.3003Z" fill="#F38BDC"/>
<path d="M14.3437 19.6238C15.9062 21.1858 17.7914 21.9671 20 21.9671C22.2088 21.9671 24.0939 21.1858 25.6563 19.6238C27.2185 18.0607 27.9999 16.1753 27.9999 13.9671C27.9999 11.7588 27.2185 9.87342 25.6563 8.31084C24.0939 6.74825 22.2088 5.96696 20 5.96696C17.7914 5.96696 15.906 6.7484 14.3437 8.31084C12.7813 9.8732 11.9999 11.7585 11.9999 13.9671C11.9999 16.1757 12.7813 18.061 14.3437 19.6238Z" fill="#F38BDC"/>
<path d="M32.0006 11.3003C33.4724 11.3003 34.7294 10.7796 35.771 9.73792C36.8126 8.69627 37.3332 7.43913 37.3332 5.96696C37.3332 4.49493 36.8126 3.2378 35.771 2.19601C34.7295 1.15436 33.4724 0.633423 32.0006 0.633423C30.5277 0.633423 29.271 1.15436 28.2293 2.19601C27.188 3.2378 26.6671 4.49464 26.6671 5.96696C26.6671 7.43943 27.188 8.69627 28.2293 9.73792C29.271 10.7793 30.5277 11.3003 32.0006 11.3003Z" fill="#F38BDC"/>
<path d="M37.4164 11.3006C37.3335 11.3006 37.0314 11.4464 36.5105 11.7381C35.9901 12.0299 35.3126 12.3251 34.4795 12.6237C33.6465 12.9221 32.8197 13.0715 32.0006 13.0715C31.0696 13.0715 30.1467 12.9119 29.2297 12.5923C29.2986 13.1059 29.3336 13.5644 29.3336 13.9672C29.3336 15.8978 28.771 17.6755 27.6455 19.3005C29.896 19.3702 31.7359 20.2589 33.167 21.9677H35.9585C37.0972 21.9677 38.0556 21.6858 38.8333 21.1235C39.6109 20.5614 40 19.738 40 18.6549C40.0002 13.7517 39.1395 11.3003 37.4164 11.3006Z" fill="#F38BDC"/>
<path d="M34.303 28.1441C34.1571 27.3315 33.9729 26.5779 33.7506 25.8837C33.5283 25.1889 33.2297 24.5123 32.8552 23.8525C32.4801 23.1933 32.0493 22.6304 31.5632 22.1649C31.0767 21.6994 30.4829 21.3284 29.7817 21.0502C29.0805 20.7725 28.3059 20.6337 27.4588 20.6337C27.3197 20.6337 27.0213 20.7831 26.5629 21.0817C26.1044 21.3801 25.5979 21.714 25.0421 22.0816C24.4865 22.4491 23.7441 22.7827 22.8129 23.0814C21.8816 23.3801 20.9443 23.5294 20.0003 23.5294C19.056 23.5294 18.1184 23.3801 17.1878 23.0814C16.257 22.7827 15.5141 22.4491 14.9585 22.0816C14.4028 21.714 13.896 21.3801 13.4378 21.0817C12.9793 20.7831 12.6808 20.6337 12.5418 20.6337C11.6946 20.6337 10.9204 20.7725 10.2189 21.0502C9.51743 21.3284 8.92374 21.6994 8.43769 22.1649C7.9512 22.6299 7.52104 23.1933 7.14575 23.8525C6.7709 24.5123 6.47231 25.1889 6.25004 25.8837C6.02785 26.5779 5.84404 27.3315 5.69795 28.1441C5.55201 28.9567 5.45489 29.7134 5.40629 30.415C5.35762 31.1165 5.33339 31.8355 5.33339 32.5716C5.33339 34.238 5.84017 35.5542 6.85402 36.5191C7.86823 37.484 9.21555 37.967 10.8958 37.967H29.1044C30.7847 37.967 32.1319 37.484 33.1463 36.5191C34.1602 35.5542 34.6671 34.238 34.6671 32.5716C34.6671 31.8355 34.6427 31.1167 34.5947 30.415C34.5454 29.7134 34.4483 28.9567 34.303 28.1441Z" fill="#F38BDC"/>
<path d="M12.3541 19.3004C11.229 17.6754 10.6666 15.8977 10.6669 13.9671C10.6669 13.5643 10.7017 13.1061 10.771 12.5922C9.85419 12.9116 8.9306 13.0714 8.00001 13.0714C7.18056 13.0714 6.35439 12.9221 5.52093 12.6237C4.68782 12.325 4.01052 12.0298 3.48987 11.738C2.96901 11.4464 2.6667 11.3005 2.58344 11.3005C0.861121 11.3006 0 13.752 0 18.6548C0 19.738 0.388931 20.5613 1.16657 21.1234C1.94444 21.6858 2.90283 21.9671 4.04138 21.9671H6.83322C8.26395 20.2588 10.104 19.3701 12.3541 19.3004Z" fill="#F38BDC"/>
</svg>
